<?xml version="1.0" standalone="no"?>
<!DOCTYPE svg PUBLIC "-//W3C//DTD SVG 20010904//EN"
 "http://www.w3.org/TR/2001/REC-SVG-20010904/DTD/svg10.dtd">
<svg version="1.0" xmlns="http://www.w3.org/2000/svg"
 width="512.000000pt" height="512.000000pt" viewBox="0 0 512.000000 512.000000"
 preserveAspectRatio="xMidYMid meet">

<g transform="translate(0.000000,512.000000) scale(0.100000,-0.100000)"
fill="#000000" stroke="none">
<path d="M4 5074 c10 -72 106 -1006 106 -1025 0 -14 1513 -1327 1540 -1337 6
-2 605 685 693 795 l18 22 -637 741 c-350 407 -643 740 -650 740 -17 0 -958
97 -1028 106 l-48 6 6 -48z"/>
<path d="M4675 5075 c-220 -24 -455 -49 -522 -56 l-123 -12 -1310 -1523 c-721
-838 -1314 -1524 -1318 -1524 -4 0 -80 73 -169 162 l-163 163 -100 -100 c-55
-55 -100 -104 -100 -110 0 -13 1192 -1205 1205 -1205 6 0 55 45 110 100 l100
100 -165 165 -165 165 25 24 c14 13 160 140 326 283 2053 1763 2704 2327 2704
2341 0 19 96 952 106 1025 6 45 5 47 -18 46 -12 -1 -203 -21 -423 -44z"/>
<path d="M3111 2004 c-177 -153 -318 -280 -314 -284 4 -4 88 -75 186 -159 97
-83 177 -155 177 -159 0 -4 -73 -80 -162 -169 l-163 -163 100 -100 c55 -55
104 -100 110 -100 13 0 1205 1192 1205 1205 0 6 -45 55 -100 110 l-100 100
-163 -163 c-89 -89 -165 -162 -169 -162 -4 0 -62 64 -129 143 -67 78 -130 150
-139 160 -15 17 -33 3 -339 -259z"/>
<path d="M511 966 l-515 -515 13 -58 c20 -92 69 -181 136 -248 68 -67 140
-107 239 -132 l68 -16 514 514 514 514 -228 228 -227 227 -514 -514z"/>
<path d="M3867 1252 l-227 -227 514 -514 514 -514 69 17 c99 24 169 63 237
132 69 69 108 140 133 238 l16 68 -514 514 -514 514 -228 -228z"/>
</g>
</svg>
