<?xml version="1.0" standalone="no"?>
<!DOCTYPE svg PUBLIC "-//W3C//DTD SVG 20010904//EN"
 "http://www.w3.org/TR/2001/REC-SVG-20010904/DTD/svg10.dtd">
<svg version="1.0" xmlns="http://www.w3.org/2000/svg"
 width="391.000000pt" height="391.000000pt" viewBox="0 0 391.000000 391.000000"
 preserveAspectRatio="xMidYMid meet">

<g transform="translate(0.000000,391.000000) scale(0.100000,-0.100000)"
fill="#000000" stroke="none">
<path d="M0 3890 c0 -23 -14 -22 225 -9 88 4 237 11 330 15 94 3 172 8 174 10
2 2 -161 4 -362 4 -360 0 -367 0 -367 -20z"/>
<path d="M817 3904 c-5 -5 -231 -31 -372 -44 -60 -5 -185 -10 -278 -11 -139
-2 -167 -4 -167 -17 0 -12 49 -13 372 -8 205 4 388 9 406 12 36 7 45 -11 10
-19 -13 -4 -173 -6 -357 -7 -183 0 -338 -3 -342 -6 -5 -3 -27 -6 -49 -6 -35 0
-40 -3 -40 -24 0 -29 19 -30 165 -9 106 15 278 18 385 7 36 -4 79 -5 95 -3 26
3 28 4 10 12 -11 4 23 6 80 3 55 -2 102 -9 103 -14 2 -6 47 -10 108 -10 88 0
110 3 146 23 37 19 58 22 148 21 96 0 113 -4 200 -37 94 -36 97 -36 145 -22
26 8 59 15 72 15 12 0 23 6 23 13 0 15 -36 48 -44 40 -3 -4 -6 -1 -6 5 0 7 -9
12 -20 12 -11 0 -20 5 -20 10 0 6 -4 10 -10 10 -5 0 -32 14 -58 30 -27 17 -62
30 -78 30 l-29 0 34 -28 c19 -15 58 -43 88 -63 30 -21 51 -39 46 -42 -21 -12
-66 -17 -76 -9 -7 5 -41 19 -77 31 -36 12 -73 26 -82 31 -10 6 -28 11 -40 11
-17 1 -19 2 -5 6 31 8 7 23 -38 23 -37 0 -42 3 -38 19 4 16 -2 18 -60 19 -52
0 -69 -3 -83 -19 -9 -11 -30 -19 -47 -19 -30 0 -30 0 -12 21 l19 20 -111 -2
c-62 -1 -114 -3 -116 -5z m17 -33 c-5 -5 -63 -11 -129 -14 -127 -5 -123 -3 32
17 100 13 114 12 97 -3z m122 4 c-22 -17 -66 -20 -66 -6 0 6 17 12 38 14 20 2
39 4 42 5 3 1 -4 -5 -14 -13z m174 5 c0 -5 -5 -10 -11 -10 -5 0 -7 5 -4 10 3
6 8 10 11 10 2 0 4 -4 4 -10z m80 0 c0 -5 -4 -10 -10 -10 -5 0 -10 5 -10 10 0
6 5 10 10 10 6 0 10 -4 10 -10z m-183 -45 c-11 -7 -25 -11 -33 -8 -22 8 -6 23
24 23 25 -1 26 -2 9 -15z m-112 -5 c-3 -5 -17 -10 -31 -10 -14 0 -22 4 -19 10
3 6 17 10 31 10 14 0 22 -4 19 -10z m175 6 c0 -2 -7 -7 -16 -10 -8 -3 -12 -2
-9 4 6 10 25 14 25 6z m-473 -42 c-3 -3 -12 -4 -19 -1 -8 3 -5 6 6 6 11 1 17
-2 13 -5z"/>
<path d="M3166 3497 c3 -10 9 -15 12 -12 3 3 0 11 -7 18 -10 9 -11 8 -5 -6z"/>
<path d="M2000 3399 c-107 -7 -241 -30 -370 -63 -47 -12 -141 -33 -230 -52
-19 -4 -22 -3 -14 6 6 6 18 12 25 13 8 2 19 5 24 8 6 4 35 14 65 24 30 10 49
20 43 22 -22 8 -123 -26 -278 -93 -203 -87 -278 -126 -289 -150 -5 -11 -33
-38 -63 -59 -67 -48 -219 -209 -378 -399 -25 -30 -55 -76 -55 -86 0 -5 -3 -10
-7 -10 -9 0 -38 -69 -49 -114 -5 -21 -4 -27 5 -22 6 4 11 14 11 23 0 23 64
132 105 178 33 38 35 38 23 10 -7 -16 -28 -54 -46 -83 -39 -62 -56 -108 -67
-177 -7 -52 2 -60 11 -9 5 32 44 134 55 148 4 5 -1 -31 -11 -79 -21 -92 -21
-207 -2 -241 8 -14 10 -2 6 51 -5 67 9 166 34 240 6 17 17 52 26 79 21 65 146
273 191 316 19 19 41 41 48 49 51 57 123 116 196 161 47 29 97 61 111 70 27
18 153 66 193 74 12 2 60 13 106 25 142 36 197 41 451 41 267 1 373 -5 465
-26 81 -18 94 -18 75 0 -8 8 -53 23 -100 33 -69 15 -130 18 -329 17 -228 0
-241 1 -190 14 53 14 529 25 529 12 0 -3 26 -6 58 -8 31 -1 75 -7 97 -13 22
-6 55 -13 74 -15 19 -3 40 -9 45 -13 6 -5 25 -11 41 -14 131 -23 192 -46 291
-113 83 -56 128 -99 119 -113 -2 -5 1 -14 9 -20 8 -7 12 -27 10 -53 l-3 -43
18 49 17 50 27 -36 c22 -29 27 -45 27 -93 0 -32 -3 -55 -7 -52 -3 4 -13 2 -20
-5 -12 -10 -11 -15 9 -30 l23 -18 -30 0 -30 -1 29 -15 c45 -25 18 -41 -34 -20
-22 9 -50 16 -63 15 -18 0 -15 -3 13 -15 22 -9 26 -12 10 -9 -14 2 -33 5 -42
5 -12 0 -18 8 -18 25 0 29 8 31 64 21 14 -2 28 -1 30 3 3 4 0 8 -7 9 -66 5
-101 18 -92 33 4 5 1 9 -4 9 -6 0 -11 -6 -11 -14 0 -8 -15 -17 -35 -20 -39 -8
-75 0 -75 15 0 5 -7 9 -17 9 -27 0 -8 11 43 24 42 10 58 10 114 -6 36 -10 75
-20 86 -24 25 -7 43 14 23 27 -8 5 -39 14 -69 21 -30 6 -58 17 -62 22 -5 7 -8
7 -8 -1 0 -8 -14 -13 -37 -13 -21 0 -58 -9 -82 -20 -52 -24 -61 -25 -61 -5 0
8 -5 15 -11 15 -5 0 -7 -6 -3 -12 4 -8 2 -8 -7 1 -8 8 -10 15 -4 18 54 23 83
43 103 73 28 41 11 55 -20 15 -11 -14 -26 -24 -34 -21 -7 3 -16 -3 -19 -14
-10 -31 -32 -42 -92 -45 l-58 -3 49 13 c48 13 96 48 84 60 -3 4 -20 -1 -38
-10 -24 -13 -67 -17 -188 -19 -137 -3 -176 -8 -307 -38 -82 -20 -167 -43 -189
-52 l-39 -17 7 28 c15 61 15 75 2 64 -9 -7 -16 -7 -24 1 -8 8 -15 1 -26 -27
-9 -21 -16 -46 -16 -55 0 -10 -6 -21 -12 -23 -10 -4 -10 -7 0 -15 10 -7 4 -17
-25 -43 -21 -19 -47 -41 -58 -49 -18 -14 -70 -77 -118 -145 -12 -17 -27 -25
-47 -25 -34 0 -36 6 -14 38 25 35 6 41 -22 7 -14 -16 -29 -36 -35 -42 -5 -7
-23 -13 -40 -13 l-30 0 17 -30 c17 -27 17 -30 1 -48 -22 -25 -21 -48 3 -82
l21 -29 -22 -11 c-16 -9 -35 -9 -79 1 l-58 13 5 35 c8 49 13 52 13 8 0 -37 19
-53 22 -19 5 60 -14 102 -69 155 -34 34 -35 37 -15 37 34 0 26 18 -10 25 -38
7 -187 77 -187 87 -1 10 123 91 206 134 106 57 255 110 388 140 181 40 252 54
275 53 23 0 24 -1 6 -12 -10 -7 -28 -20 -40 -30 -23 -20 -26 -20 69 -2 11 2
45 6 75 9 30 3 78 7 105 10 28 3 90 8 140 11 49 3 91 8 94 11 13 13 -19 15
-121 6 -63 -6 -128 -7 -148 -2 -23 5 -28 9 -15 10 11 2 25 4 30 5 6 2 15 4 20
5 6 1 20 1 32 0 28 -2 155 29 168 42 6 6 5 12 -5 19 -11 7 0 8 35 5 28 -3 88
-8 135 -12 47 -3 101 -7 120 -9 36 -2 138 -14 177 -20 12 -2 30 -8 41 -14 27
-14 43 -14 39 1 -2 12 -133 62 -202 78 -224 50 -659 40 -835 -20 -85 -29 -221
-83 -225 -91 -6 -9 27 1 170 49 50 17 108 33 130 37 22 4 49 9 60 11 142 26
422 30 575 9 19 -2 54 -7 78 -10 24 -4 53 -10 65 -16 17 -7 13 -8 -18 -4 -168
22 -629 36 -612 19 3 -3 44 -6 91 -6 94 -1 110 -18 18 -19 -80 -1 -148 -12
-144 -24 2 -5 -21 -14 -50 -18 -135 -20 -333 -62 -438 -93 -121 -35 -310 -112
-339 -138 -10 -9 -22 -16 -27 -16 -5 0 -43 -25 -84 -56 -61 -45 -80 -53 -100
-48 -14 4 -41 8 -60 8 -30 1 -36 -3 -38 -23 -5 -31 -28 -56 -35 -38 -3 6 -6 1
-6 -11 -1 -13 -11 -32 -23 -43 l-23 -18 35 -2 c19 -1 27 -3 17 -6 -9 -2 -14
-9 -11 -15 4 -6 -3 -5 -16 2 -44 23 -34 -3 20 -51 41 -37 61 -48 78 -44 12 3
22 1 22 -3 0 -14 81 -42 118 -42 18 0 32 -5 32 -11 0 -8 4 -8 13 -1 16 14 89
-9 95 -29 3 -8 16 -24 31 -37 l26 -23 -55 4 c-54 5 -54 5 -20 -7 19 -7 49 -11
67 -9 51 5 39 -12 -29 -42 -35 -15 -81 -36 -103 -46 -22 -10 -58 -25 -80 -32
-22 -8 -44 -23 -49 -34 -5 -11 -23 -25 -40 -33 -116 -49 -133 -59 -115 -70 6
-4 93 32 193 80 99 48 205 96 234 106 l52 18 31 -31 31 -30 -77 -44 c-162 -92
-178 -99 -231 -99 -58 0 -92 -23 -52 -34 19 -5 20 -8 8 -16 -8 -5 -28 -10 -45
-11 l-30 -1 30 -11 c17 -7 44 -20 62 -30 48 -26 64 -20 20 7 l-38 24 32 11
c18 6 59 11 93 11 102 0 200 54 114 62 -32 3 -32 4 32 37 36 18 74 40 85 47
16 12 22 11 41 -7 12 -11 20 -28 17 -38 -4 -15 -155 -101 -177 -101 -12 0
-106 -73 -106 -82 0 -6 189 82 265 124 11 6 88 13 172 16 l153 4 0 -25 c0 -17
7 -28 21 -32 19 -6 20 -8 3 -26 -9 -10 -23 -19 -31 -19 -7 0 -13 -3 -13 -7 0
-5 -10 -13 -23 -19 -64 -31 -207 -109 -239 -131 -20 -13 -42 -23 -50 -22 -7 1
-43 -1 -81 -5 -45 -6 -71 -5 -80 3 -8 6 -17 8 -20 4 -4 -3 -14 0 -24 8 -11 9
-14 10 -9 2 12 -20 -47 -16 -75 5 -49 37 -100 61 -117 56 -11 -4 -13 -3 -5 3
9 6 -3 15 -38 28 -62 24 -83 45 -46 45 13 0 40 -6 58 -14 19 -8 36 -14 39 -13
12 1 86 -39 100 -54 8 -9 29 -25 45 -34 20 -12 12 -1 -25 34 -54 51 -110 89
-110 74 0 -4 -5 -2 -12 5 -7 7 -20 12 -30 12 -10 0 -18 7 -18 15 0 9 -6 12
-15 9 -19 -8 -67 4 -61 14 6 10 -223 8 -247 -3 -31 -13 -18 -20 35 -18 l53 3
-40 -15 -40 -14 40 6 c22 3 41 9 43 12 1 4 18 5 37 3 l35 -4 -27 -24 c-28 -24
-68 -39 -134 -50 -41 -7 -58 8 -39 31 22 27 -18 17 -58 -13 -20 -16 -57 -34
-81 -41 -23 -7 -49 -15 -57 -18 -23 -9 -16 14 16 50 27 31 28 36 14 48 -14 12
-20 9 -47 -21 -17 -19 -25 -36 -20 -37 6 -2 8 -13 5 -25 -5 -19 -10 -20 -79
-14 -43 3 -73 2 -73 -4 0 -15 19 -22 68 -25 25 -2 48 -9 52 -17 4 -7 16 -51
25 -98 10 -47 20 -96 23 -109 3 -16 1 -22 -7 -17 -15 10 -14 -18 5 -89 9 -33
18 -70 20 -82 2 -13 24 -80 48 -150 80 -233 86 -244 116 -225 16 10 21 10 25
0 2 -7 14 -40 25 -73 12 -33 23 -67 25 -76 2 -8 10 -33 19 -54 12 -28 19 -36
27 -28 6 6 18 9 25 6 17 -6 18 17 2 52 -9 20 -9 28 1 38 8 8 11 8 9 1 -4 -14
152 -165 164 -158 4 3 8 -2 8 -10 0 -9 6 -16 13 -16 8 0 22 -9 32 -20 10 -11
24 -20 31 -20 7 0 14 -6 17 -12 2 -7 8 -10 12 -6 10 9 -29 44 -70 63 -16 8
-26 14 -22 15 5 0 -13 18 -40 39 -96 79 -138 120 -131 127 5 4 16 0 25 -8 22
-18 171 -108 180 -108 3 0 30 -18 60 -40 29 -23 53 -38 53 -35 0 3 11 -6 25
-20 14 -14 30 -25 34 -25 5 0 20 -18 35 -40 29 -45 35 -70 11 -50 -8 7 -15 9
-15 5 0 -3 -12 3 -26 14 -15 12 -33 21 -40 21 -8 0 -14 4 -14 8 0 5 -11 14
-25 20 -16 7 -25 8 -25 2 0 -6 10 -14 23 -19 12 -5 31 -18 42 -28 11 -10 36
-25 55 -32 37 -15 80 -49 80 -63 0 -4 -71 -8 -159 -8 -87 0 -172 -3 -189 -6
-31 -6 -45 -24 -36 -47 6 -16 115 -77 138 -77 29 0 17 15 -27 33 -52 22 -94
53 -84 63 4 4 93 7 197 6 l190 -1 0 30 c0 16 -10 43 -22 59 -32 44 -16 46 44
6 29 -20 56 -36 60 -36 18 0 6 18 -19 31 -16 8 -47 27 -70 42 -72 48 -96 102
-30 69 17 -9 40 -18 50 -19 30 -5 81 -44 117 -90 19 -25 41 -51 48 -58 20 -22
14 -27 -13 -9 -18 12 -29 13 -38 6 -9 -8 -24 -6 -52 7 -40 18 -70 18 -59 0 3
-5 14 -9 25 -9 10 0 19 -5 19 -11 0 -5 4 -8 8 -5 5 3 20 -1 35 -9 15 -8 27
-11 27 -8 0 3 9 -2 20 -12 11 -10 20 -14 20 -8 0 5 13 8 30 5 31 -4 130 -101
130 -127 0 -51 -28 -57 -84 -18 l-40 26 22 -30 c12 -17 22 -36 22 -42 0 -6 5
-11 10 -11 6 0 9 6 8 13 -2 6 3 11 11 9 26 -6 61 8 61 23 0 26 16 16 66 -42
27 -31 55 -62 62 -69 6 -7 12 -15 12 -18 0 -10 91 -131 102 -135 5 -2 -4 16
-21 39 -16 23 -27 48 -24 56 3 8 -16 35 -46 67 -28 29 -68 78 -89 108 -20 29
-40 56 -43 59 -3 3 -30 37 -59 75 -29 39 -56 72 -60 75 -18 14 -40 57 -40 77
0 16 -8 27 -27 34 -30 11 -88 67 -79 76 3 4 14 -1 23 -9 17 -14 63 -31 63 -22
0 2 -25 16 -55 30 -56 28 -70 44 -37 44 28 1 -21 35 -133 91 -128 65 -158 89
-184 142 -12 24 -21 46 -21 49 0 3 27 9 59 13 47 5 64 3 85 -10 16 -10 26 -13
26 -6 0 6 -8 11 -17 11 -9 0 -14 3 -10 6 9 9 48 -6 42 -17 -3 -5 0 -6 8 -3 8
3 17 -2 20 -10 4 -9 13 -16 21 -16 8 0 28 -17 43 -37 15 -21 33 -43 38 -49 6
-6 17 -21 25 -34 8 -12 27 -35 43 -53 15 -17 27 -39 27 -48 0 -22 21 -69 30
-69 4 0 11 -10 15 -22 7 -22 7 -21 14 7 l6 29 17 -26 c10 -15 19 -32 20 -40 2
-7 13 -21 26 -31 12 -10 32 -36 42 -58 20 -38 40 -52 40 -27 0 18 91 -86 119
-135 l23 -42 -41 45 c-22 25 -43 53 -46 63 -4 9 -10 17 -15 17 -5 0 -12 9 -15
20 -3 11 -11 20 -17 20 -5 0 -8 -6 -5 -14 5 -13 118 -166 142 -192 6 -6 28
-32 50 -59 22 -26 62 -71 88 -99 26 -28 62 -68 80 -89 17 -20 39 -37 49 -37
10 0 18 2 18 5 0 2 -23 28 -51 57 -28 29 -76 87 -107 128 -31 41 -66 86 -79
100 -13 14 -23 28 -23 32 0 9 291 -287 303 -308 5 -9 24 -14 49 -14 l42 0 -30
32 -29 33 30 -25 c16 -14 31 -28 33 -32 2 -5 12 -8 22 -8 13 0 -8 25 -63 77
-113 105 -304 292 -411 401 -63 64 -83 89 -66 85 20 -5 22 -3 16 13 -17 40
-17 51 -2 67 24 24 19 29 -10 10 -25 -16 -27 -16 -40 2 -9 12 -13 43 -11 96 2
80 13 103 23 50 6 -30 54 -85 54 -62 0 6 10 15 23 20 28 11 75 34 288 142 91
46 189 95 217 108 29 14 52 28 52 32 0 4 10 9 23 11 12 2 21 7 19 11 -1 4 30
25 70 45 40 20 75 40 78 43 3 3 22 14 43 24 21 10 36 20 34 22 -3 2 -30 -10
-61 -26 -31 -17 -56 -28 -56 -25 0 3 -15 -3 -32 -14 -18 -11 -75 -41 -126 -67
-51 -25 -90 -50 -87 -55 3 -6 -1 -7 -9 -4 -8 3 -39 -10 -68 -29 -29 -19 -131
-74 -226 -123 -141 -71 -175 -85 -183 -73 -5 8 -9 46 -9 84 0 82 -24 175 -36
137 -8 -28 -20 -28 -27 0 -9 32 6 51 75 93 35 21 100 62 145 92 45 29 84 53
87 53 3 0 31 15 63 34 106 61 335 176 323 161 -10 -12 -9 -15 4 -15 9 0 19 -7
22 -15 10 -25 31 -17 45 17 17 42 15 61 -12 97 -16 22 -20 38 -16 64 6 41 -8
70 -23 47 -5 -8 -7 -23 -4 -33 9 -27 -14 -73 -42 -85 -13 -7 -24 -16 -24 -22
0 -5 -6 -10 -14 -10 -14 0 -117 -59 -145 -83 -9 -8 -52 -35 -96 -61 -44 -26
-127 -77 -185 -115 -135 -87 -198 -122 -203 -113 -5 7 -11 45 -23 132 -3 25
-14 54 -25 66 -11 12 -32 59 -47 105 -22 68 -31 84 -47 84 -11 1 -25 4 -32 8
-9 6 -9 0 -1 -25 5 -18 12 -46 15 -63 4 -24 2 -27 -7 -15 -10 13 -11 12 -6 -3
3 -10 6 -21 6 -23 0 -3 6 -2 13 1 6 4 5 1 -3 -7 -8 -7 -14 -26 -13 -43 2 -25
0 -22 -17 19 -20 46 -51 117 -72 161 -11 23 37 -26 64 -65 15 -23 16 -23 11
-3 -3 12 -12 30 -21 40 -10 10 -30 35 -46 56 -23 32 -25 36 -7 25 12 -7 21
-16 21 -19 0 -4 7 -9 15 -13 12 -4 13 -2 2 17 -6 12 -18 26 -25 30 -11 7 -11
12 0 25 12 15 11 16 -4 3 -14 -11 -21 -11 -33 -1 -8 7 -12 17 -9 22 4 6 10 5
15 -3 5 -8 9 -9 8 -4 0 6 -20 35 -44 65 -24 30 -42 56 -39 59 3 3 9 -1 13 -8
7 -11 20 -12 77 -1 38 7 85 19 104 27 19 8 54 15 78 14 29 0 41 3 36 11 -5 8
-2 9 10 5 21 -8 103 29 116 54 6 10 20 21 31 24 27 9 159 135 141 135 -8 0
-11 7 -7 18 3 11 -3 29 -15 44 -17 22 -30 26 -102 32 -46 4 -112 7 -148 7
l-64 1 48 24 c26 13 62 35 79 48 52 38 150 88 156 79 3 -4 22 -8 41 -9 33 0
96 -5 261 -20 39 -4 69 -2 72 3 4 6 -46 13 -131 17 -75 4 -140 10 -144 14 -4
4 55 6 131 4 132 -3 228 9 217 27 -3 4 12 8 32 9 31 1 113 15 157 26 39 10
101 31 105 36 3 3 14 6 25 6 60 1 190 57 224 98 7 9 17 16 22 16 13 0 11 -64
-3 -78 -9 -9 -8 -12 5 -12 14 0 17 -10 17 -50 0 -27 4 -50 9 -50 10 0 6 80 -7
152 -8 43 -7 50 13 70 12 13 41 49 64 81 24 31 44 57 45 57 2 0 1 -62 0 -137
-2 -76 -3 -225 -3 -331 l-1 -192 -54 -35 c-29 -19 -72 -44 -94 -55 -22 -12
-46 -28 -53 -36 -18 -22 -7 -19 64 18 48 25 73 36 100 42 24 6 28 4 25 -11 -2
-11 -40 -37 -101 -68 -95 -48 -99 -49 -113 -31 -8 11 -14 34 -14 50 0 32 -15
65 -24 55 -3 -3 -7 -41 -8 -84 -3 -73 -5 -80 -28 -92 -18 -9 -20 -13 -7 -13 9
0 17 -7 17 -15 0 -8 4 -15 10 -15 5 0 7 -7 4 -15 -4 -8 -1 -15 5 -15 6 0 11
-12 11 -26 0 -14 8 -33 17 -42 16 -16 16 -16 10 0 -4 12 0 19 16 24 12 4 23 2
25 -5 7 -20 20 -12 15 9 -4 15 2 23 23 31 16 7 38 11 48 11 10 -1 32 6 48 14
17 9 32 14 34 11 2 -2 6 -33 8 -70 3 -36 9 -74 15 -84 12 -20 14 -13 11 35 -1
23 4 38 17 47 17 13 16 14 -6 8 -22 -6 -23 -4 -18 18 4 13 7 36 7 50 0 18 8
29 25 37 37 17 37 16 30 -26 -3 -21 -8 -69 -9 -107 -3 -53 -8 -72 -21 -80 -10
-5 -30 -20 -44 -33 l-26 -23 37 15 c20 8 38 12 41 10 10 -10 -6 -53 -22 -57
-9 -2 -17 -14 -18 -26 -2 -19 1 -20 13 -11 12 11 14 7 14 -21 l0 -34 15 29 c9
16 24 36 35 43 12 9 17 20 13 31 -6 15 -5 16 12 2 10 -8 16 -10 12 -3 -5 7 1
16 12 22 14 8 21 8 24 -2 3 -7 6 -5 6 5 1 9 6 20 13 24 7 4 8 3 4 -4 -4 -7 -2
-12 4 -12 31 0 285 147 333 193 37 34 41 37 57 37 6 0 10 5 10 10 0 16 -18 12
-40 -10 -11 -11 -25 -20 -30 -20 -19 0 -10 31 15 54 22 20 25 32 25 88 0 36 3
67 6 71 4 3 8 64 9 136 1 71 6 135 10 142 6 9 2 11 -14 6 -18 -4 -25 2 -42 35
-12 23 -27 62 -35 88 -18 60 -51 135 -67 152 -7 7 -25 32 -40 56 -15 24 -32
40 -38 36 -8 -4 -9 1 -4 16 5 17 4 21 -6 18 -8 -3 -39 18 -69 46 -31 28 -78
70 -105 93 -70 60 -48 66 27 7 35 -26 57 -41 51 -33 -7 9 -38 36 -68 60 -39
31 -55 51 -55 68 0 13 -16 58 -36 100 -35 73 -37 80 -36 178 0 58 -3 105 -9
109 -6 3 -9 -8 -8 -28 1 -18 1 -55 0 -82 l-1 -49 -37 49 c-20 27 -41 51 -45
52 -5 2 -30 18 -56 36 -26 18 -65 36 -87 40 -22 4 -65 20 -95 36 -85 44 -204
89 -299 112 -96 23 -329 30 -541 17z m1046 -261 l19 -23 -25 20 c-14 11 -27
21 -29 22 -2 2 0 3 6 3 5 0 18 -10 29 -22z m38 -34 c3 -8 2 -12 -4 -9 -6 3
-10 10 -10 16 0 14 7 11 14 -7z m-879 -84 c4 -6 -7 -10 -27 -9 -31 1 -32 1 -8
9 14 4 26 8 27 9 1 1 5 -3 8 -9z m155 -132 c0 -4 -17 -8 -37 -8 -28 0 -34 3
-23 10 17 11 60 9 60 -2z m375 -18 c20 -1 -21 -20 -43 -20 -21 0 -174 -56
-259 -95 -17 -8 -35 -15 -41 -15 -5 0 -12 -8 -14 -18 -5 -18 -125 -82 -153
-82 -7 0 -48 -18 -92 -39 -43 -21 -137 -64 -208 -95 -72 -31 -138 -61 -147
-66 -23 -13 -22 -9 2 46 18 38 25 44 53 45 31 1 41 2 97 8 25 3 25 3 2 9 -22
7 -21 8 15 26 21 11 54 34 73 52 88 81 112 106 105 112 -4 4 -12 -1 -19 -11
-7 -9 -17 -17 -21 -17 -5 0 -19 -10 -32 -22 -13 -12 -25 -19 -28 -17 -7 8 107
119 122 119 7 0 13 4 13 9 0 14 79 49 125 55 22 3 110 9 195 12 85 3 157 8
160 11 2 2 23 2 45 -1 22 -3 45 -5 50 -6z m452 -12 c-3 -8 -6 -5 -6 6 -1 11 2
17 5 13 3 -3 4 -12 1 -19z m-1001 -3 c-26 -19 -42 -19 -26 0 7 8 20 15 29 15
13 -1 13 -3 -3 -15z m-51 -26 c-4 -5 -12 -9 -18 -9 -7 0 -25 -7 -42 -16 -16
-9 -41 -23 -55 -30 -14 -8 -19 -14 -12 -14 7 0 22 5 33 10 44 24 14 -3 -46
-41 -67 -42 -80 -55 -45 -44 38 12 20 -12 -31 -39 -57 -31 -74 -28 -40 8 13
14 20 29 17 34 -7 11 82 92 100 92 6 0 17 6 23 14 7 8 34 20 61 27 27 7 46 17
43 22 -3 6 -1 7 6 3 6 -4 9 -12 6 -17z m783 -5 c34 -3 62 -9 62 -12 -1 -24
-23 -32 -100 -34 -47 -1 -77 -4 -67 -6 9 -2 15 -8 11 -13 -5 -9 25 -6 65 7 7
2 19 0 26 -6 7 -6 17 -10 21 -9 5 1 19 1 31 0 16 -1 20 -6 17 -23 l-5 -23 10
22 c10 22 11 22 63 7 81 -24 81 -24 57 -69 -17 -35 -75 -85 -98 -85 -5 0 0 29
10 65 10 36 14 65 9 65 -5 0 -11 -14 -15 -30 -4 -17 -11 -28 -16 -24 -5 3 -9
-2 -9 -11 0 -22 -40 -98 -59 -111 -9 -7 -32 -26 -51 -43 -95 -84 -285 -143
-516 -160 -145 -11 -228 -13 -206 -4 17 7 15 23 -3 23 -8 0 -15 -5 -15 -11 0
-5 -8 -9 -17 -8 -10 1 -26 -1 -35 -5 -10 -5 -32 -3 -49 3 -18 6 -48 11 -67 11
-20 0 -33 2 -30 6 3 3 38 5 77 6 39 0 71 4 71 9 0 4 -22 7 -50 6 -59 -2 -54 5
20 28 56 18 180 77 247 117 21 13 83 46 138 73 55 28 107 58 116 67 8 9 27 20
42 23 15 4 24 11 21 16 -4 8 -296 -136 -330 -162 -6 -5 -19 -10 -30 -12 -10
-1 -25 -7 -33 -11 -10 -7 -12 -5 -6 3 4 7 -10 2 -31 -11 -41 -26 -162 -85
-228 -112 -54 -22 -126 -20 -126 4 0 15 70 52 105 55 20 2 70 20 113 40 42 21
105 48 139 62 37 15 60 29 56 36 -3 5 -2 7 4 4 11 -7 92 19 113 37 8 8 27 16
43 20 15 3 27 11 27 16 0 6 8 10 18 10 28 0 82 30 82 44 0 7 21 21 48 31 26
10 52 21 57 25 17 12 104 33 117 28 7 -3 22 3 32 13 18 18 18 18 -13 9 -17 -5
-31 -5 -31 0 0 14 23 19 65 14 22 -3 68 -7 103 -10z m382 -134 c63 -57 58 -68
-6 -14 -24 19 -44 32 -44 27 0 -10 -20 19 -20 30 0 15 17 5 70 -43z m-1310 10
c0 -5 -4 -10 -10 -10 -5 0 -10 5 -10 10 0 6 5 10 10 10 6 0 10 -4 10 -10z
m-871 -35 c12 -12 -12 -35 -37 -35 -24 0 -29 4 -27 23 1 12 3 24 4 26 1 4 54
-9 60 -14z m886 -4 c-3 -6 -11 -11 -17 -11 -6 0 -6 6 2 15 14 17 26 13 15 -4z
m1217 -26 c4 -5 8 -6 8 -2 0 9 160 -123 202 -167 31 -32 37 -46 11 -25 -15 13
-15 11 1 -18 17 -33 33 -46 22 -18 -3 8 -1 15 4 15 17 0 86 -122 81 -143 -1
-5 3 -6 8 -3 11 7 -4 62 -24 86 -7 8 -18 26 -24 40 -11 22 -10 22 14 -5 14
-16 30 -35 34 -41 17 -21 65 -149 63 -168 0 -11 -6 -22 -12 -26 -8 -5 -6 -9 5
-14 15 -5 16 -17 10 -104 -4 -53 -8 -105 -8 -114 -2 -36 -17 -17 -17 22 0 29
-4 40 -15 40 -8 0 -15 5 -15 11 0 7 -12 0 -26 -15 -29 -28 -57 -35 -48 -12 9
24 -43 10 -93 -25 -24 -16 -48 -29 -54 -29 -5 0 -9 -4 -9 -9 0 -5 -9 -13 -20
-16 -11 -3 -20 -11 -20 -17 0 -6 10 -3 23 6 12 9 34 21 49 27 16 6 25 15 22
20 -3 5 3 6 12 2 12 -4 15 -3 10 5 -4 7 -1 12 8 12 8 0 23 3 33 6 10 3 0 -6
-22 -21 -57 -37 -158 -88 -150 -76 3 6 2 11 -4 11 -5 0 -13 -4 -16 -10 -3 -5
-14 -10 -23 -10 -12 0 -13 3 -5 11 6 6 9 17 7 23 -3 7 7 19 21 26 20 11 25 20
22 38 -3 18 3 27 27 39 17 10 37 16 44 15 6 -2 12 1 12 6 0 5 21 20 48 33 26
13 49 27 50 32 2 4 9 7 15 7 7 0 23 9 37 20 25 19 25 19 2 15 -39 -7 -91 -28
-87 -35 3 -4 -34 -27 -81 -51 -47 -24 -96 -54 -110 -66 -17 -15 -24 -18 -24
-8 0 8 5 17 10 20 6 4 8 10 6 14 -3 4 4 13 16 20 11 7 17 8 13 2 -3 -6 -1 -11
4 -11 6 0 11 7 11 16 0 10 5 14 16 10 8 -3 13 -2 10 3 -7 11 22 23 35 15 5 -3
9 0 9 5 0 6 11 11 25 11 14 0 24 4 23 9 -2 5 12 23 30 40 17 17 32 33 32 35 0
3 -40 -18 -88 -45 -49 -27 -102 -52 -119 -55 l-30 -6 4 51 c3 28 0 51 -5 51
-5 0 -10 -25 -11 -56 -2 -66 -4 -70 -32 -77 -20 -5 -20 -3 -17 123 2 71 7 132
10 135 3 4 3 19 -1 33 -6 23 -6 105 -2 341 l1 44 23 -19 c12 -10 25 -23 29
-29z m-2012 -85 c72 -26 98 -45 105 -78 2 -12 11 -29 19 -38 24 -23 20 -25
-19 -8 -19 8 -47 13 -63 12 -34 -2 -87 25 -106 55 -19 30 -28 90 -13 84 7 -2
41 -15 77 -27z m25 20 c8 -13 -15 -13 -35 0 -12 8 -11 10 7 10 12 0 25 -4 28
-10z m1764 -55 c-54 -55 -85 -76 -181 -123 -5 -2 -8 -1 -8 2 0 3 17 17 38 30
36 23 93 77 126 121 14 17 17 18 26 5 8 -13 10 -13 10 2 0 15 14 23 44 27 5 0
-19 -28 -55 -64z m432 27 c20 -20 45 -50 55 -67 l19 -30 -24 16 c-36 23 -116
119 -100 119 8 -1 30 -17 50 -38z m-2393 -18 c14 -15 14 -16 -3 -13 -10 2 -20
10 -23 17 -5 17 6 15 26 -4z m582 -9 c0 -8 -2 -15 -4 -15 -2 0 -6 7 -10 15 -3
8 -1 15 4 15 6 0 10 -7 10 -15z m90 10 c0 -2 -5 -15 -11 -29 l-12 -25 -18 24
c-25 31 -24 35 11 35 17 0 30 -2 30 -5z m43 -44 c-17 -30 -33 -47 -41 -44 -10
4 -10 9 3 23 8 9 15 22 15 28 0 13 28 42 41 42 5 0 -3 -22 -18 -49z m197 15
c0 -2 -7 -7 -16 -10 -8 -3 -12 -2 -9 4 6 10 25 14 25 6z m-172 -150 c7 -4 12
-16 12 -27 0 -11 -4 -17 -10 -14 -5 3 -10 1 -10 -4 0 -6 -3 -10 -7 -9 -5 1
-19 -4 -31 -11 -13 -7 -25 -11 -26 -9 -1 2 -8 11 -15 21 -12 15 -12 17 3 11
12 -5 15 -2 10 10 -13 34 37 55 74 32z m42 -26 c0 -5 -4 -10 -10 -10 -5 0 -10
5 -10 10 0 6 5 10 10 10 6 0 10 -4 10 -10z m238 -10 c13 0 20 -4 17 -9 -7 -12
-115 -5 -147 9 -17 8 -7 9 42 5 36 -3 75 -5 88 -5z m-433 -24 c46 -16 55 -31
23 -41 -13 -5 -24 -3 -26 4 -2 6 -8 9 -12 6 -5 -3 -18 3 -29 14 -13 13 -16 21
-8 25 7 2 12 5 12 5 0 0 18 -6 40 -13z m274 3 c20 -7 43 -14 51 -16 8 -2 -20
-22 -65 -44 -44 -22 -105 -53 -135 -69 -65 -36 -70 -36 -104 -9 -21 17 -24 24
-15 35 6 8 20 14 31 14 16 0 19 -5 15 -21 -8 -32 15 -17 26 17 11 32 16 36 91
76 59 32 58 32 105 17z m320 -5 c2 -2 -23 -4 -57 -4 -38 0 -62 4 -62 11 0 10
108 3 119 -7z m119 -1 c-16 -2 -40 -2 -55 0 -16 2 -3 4 27 4 30 0 43 -2 28 -4z
m-700 -170 c6 -19 -25 -16 -32 3 -4 11 -1 14 11 12 9 -2 18 -9 21 -15z m352
-73 c0 -5 -9 -10 -20 -10 -11 0 -20 5 -20 10 0 6 9 10 20 10 11 0 20 -4 20
-10z m40 -49 c0 -5 -7 -12 -16 -15 -14 -5 -15 -4 -4 9 14 17 20 19 20 6z m-55
-21 c-3 -5 -13 -10 -21 -10 -8 0 -12 5 -9 10 3 6 13 10 21 10 8 0 12 -4 9 -10z
m1235 -15 c0 -13 -29 -35 -45 -35 -4 0 -5 10 -3 23 2 12 9 21 16 20 6 -2 12 2
12 8 0 5 5 7 10 4 6 -3 10 -13 10 -20z m356 -117 l6 -115 -26 0 c-15 0 -34 -7
-44 -15 -41 -34 -143 -89 -154 -82 -7 4 -8 3 -4 -4 5 -8 0 -12 -13 -12 -11 0
-22 -4 -25 -9 -6 -9 -82 -51 -92 -51 -6 0 2 100 8 104 2 2 12 8 23 15 19 11
19 12 -2 6 -21 -6 -23 -3 -23 39 0 43 3 48 48 80 26 19 58 41 72 48 14 7 39
22 55 34 59 43 151 88 163 79 1 -1 5 -54 8 -117z m-2541 92 c-3 -5 -14 -10
-23 -9 -14 0 -13 2 3 9 27 11 27 11 20 0z m2165 -45 c-12 -13 -27 -22 -33 -18
-5 3 1 14 14 24 35 27 46 23 19 -6z m424 -20 c-4 -8 -8 -15 -10 -15 -2 0 -4 7
-4 15 0 8 4 15 10 15 5 0 7 -7 4 -15z m-410 -33 c-4 -9 -8 -21 -8 -26 -1 -5
-8 -11 -16 -13 -13 -4 -13 -3 0 6 8 6 10 11 5 11 -6 0 -16 -5 -23 -12 -9 -9
-12 -8 -12 8 0 24 10 38 35 52 23 12 31 1 19 -26z m-94 24 c0 -8 -67 -46 -81
-46 -8 0 4 11 26 24 40 24 55 30 55 22z m-2040 -31 c9 -8 24 -15 33 -15 9 0
17 -4 17 -9 0 -12 -73 3 -98 21 -12 8 -19 17 -16 21 9 9 45 -1 64 -18z m770 0
c-33 -19 -50 -18 -26 0 11 8 27 15 35 15 10 -1 7 -6 -9 -15z m1415 5 c-3 -5
-11 -10 -16 -10 -6 0 -7 5 -4 10 3 6 11 10 16 10 6 0 7 -4 4 -10z m-2342 -26
c3 -3 -1 -24 -9 -46 -17 -49 -17 -51 -1 -42 13 8 -11 -26 -27 -37 -13 -10 32
-22 46 -12 12 7 68 13 137 14 13 1 19 4 13 8 -6 3 22 6 61 6 73 0 114 -13 151
-47 11 -10 23 -18 28 -18 9 0 37 -22 78 -61 65 -61 190 -265 176 -287 -3 -5 1
-26 8 -47 21 -61 11 -68 -43 -34 -27 16 -53 29 -60 29 -6 0 -11 3 -11 8 0 12
-40 33 -52 26 -5 -4 27 -28 73 -54 46 -27 89 -52 94 -57 16 -15 45 -23 45 -13
0 5 -4 12 -10 15 -9 6 6 43 23 56 4 3 8 36 8 72 1 37 5 67 10 67 8 0 11 -8 8
-26 0 -4 5 -10 13 -15 14 -9 20 -160 9 -231 l-6 -37 -97 39 c-123 49 -345 176
-356 202 -2 5 -26 18 -53 30 -28 11 -55 28 -62 37 -7 9 -35 28 -63 43 -28 14
-103 60 -167 102 -63 42 -120 76 -126 76 -6 0 -26 14 -46 31 -20 18 -46 32
-58 33 -20 1 -22 6 -21 64 1 71 8 80 60 80 26 0 31 -3 26 -16 -3 -10 -12 -23
-19 -31 -32 -31 5 -76 131 -158 22 -14 44 -29 50 -34 6 -5 31 -25 56 -45 24
-20 54 -40 65 -45 22 -10 57 -31 65 -39 3 -3 28 -17 55 -30 63 -31 224 -123
290 -165 64 -41 145 -77 145 -64 0 5 -4 9 -10 9 -8 0 -53 25 -138 77 -22 13
-22 16 -6 27 15 12 14 15 -16 36 -23 17 -34 20 -40 11 -5 -9 -19 -6 -53 10
-26 13 -47 27 -47 31 0 4 -7 8 -15 8 -8 0 -15 4 -15 10 0 5 -27 28 -60 50 -33
22 -60 36 -60 30 0 -5 25 -24 55 -41 31 -17 53 -34 50 -37 -6 -6 -80 32 -108
56 -10 9 -16 21 -13 28 4 11 -12 23 -149 109 -33 21 -62 42 -65 46 -3 4 -23
12 -45 18 -41 11 -120 73 -108 85 11 11 23 6 23 -9 0 -24 17 -17 24 10 4 14
11 25 17 25 6 0 28 13 48 29 31 24 49 33 82 40 3 0 8 -2 12 -5z m2208 -15 c-2
-8 -3 -22 -3 -31 0 -10 -4 -18 -9 -18 -6 0 -7 5 -4 10 11 18 -2 11 -76 -40
-39 -27 -76 -47 -80 -44 -5 3 -9 15 -9 27 0 16 12 28 43 43 23 12 41 26 40 32
-2 6 3 9 10 7 6 -3 26 4 42 14 33 21 52 21 46 0z m501 -29 c6 0 6 -6 -2 -15
-19 -23 -27 -10 -21 32 5 33 6 34 9 11 2 -16 8 -28 14 -28z m-3002 30 c0 -5
-7 -10 -16 -10 -8 0 -12 5 -9 10 3 6 10 10 16 10 5 0 9 -4 9 -10z m630 0 c0
-5 -7 -7 -15 -4 -8 4 -15 8 -15 10 0 2 7 4 15 4 8 0 15 -4 15 -10z m-290 -9
c0 -6 -4 -13 -10 -16 -5 -3 -10 1 -10 9 0 9 5 16 10 16 6 0 10 -4 10 -9z
m-340 -21 c0 -5 -4 -10 -10 -10 -5 0 -10 5 -10 10 0 6 5 10 10 10 6 0 10 -4
10 -10z m475 -16 c7 2 18 0 26 -5 10 -6 7 -9 -11 -9 -14 0 -49 -6 -78 -14 -29
-7 -55 -9 -58 -5 -3 5 0 9 7 9 7 0 9 3 6 7 -4 3 0 14 9 24 15 17 19 17 52 3
20 -8 41 -13 47 -10z m311 -12 c55 -53 94 -101 85 -106 -8 -5 -131 115 -131
128 0 14 20 4 46 -22z m2223 -19 c-16 -43 -48 -65 -217 -150 -86 -43 -159 -81
-162 -84 -13 -15 -41 -18 -46 -4 -6 15 17 45 34 45 6 0 32 11 59 24 51 25 83
39 96 40 4 1 11 6 15 11 6 9 72 46 159 89 13 6 23 14 23 19 0 4 7 7 15 7 8 0
15 7 15 15 0 8 4 15 10 15 6 0 6 -10 -1 -27z m-569 -13 c-8 -5 -19 -10 -25
-10 -5 0 -3 5 5 10 8 5 20 10 25 10 6 0 3 -5 -5 -10z m-1691 -35 c29 -33 36
-45 28 -45 -2 0 -20 18 -41 40 -20 22 -33 40 -27 40 5 0 23 -16 40 -35z m72
-72 c13 -16 12 -17 -3 -4 -10 7 -18 15 -18 17 0 8 8 3 21 -13z m-725 -85 c26
-20 43 -41 43 -53 0 -18 0 -19 -10 -2 -15 26 -29 21 -29 -11 0 -39 29 -146 40
-150 6 -2 10 -11 10 -21 0 -9 6 -23 13 -30 10 -11 9 -14 -1 -18 -10 -4 -8 -9
6 -19 14 -10 24 -35 33 -84 7 -39 16 -73 21 -76 4 -3 8 -14 8 -25 0 -13 7 -19
21 -19 20 0 21 3 14 57 -4 31 -11 68 -16 81 -12 32 -4 40 24 23 20 -13 21 -13
8 2 -7 10 -19 17 -27 17 -7 0 -18 8 -23 19 -15 27 -63 211 -59 227 3 12 81
-31 168 -93 14 -10 31 -17 38 -15 6 2 12 -1 12 -6 0 -10 152 -92 171 -92 6 0
17 -7 23 -15 6 -8 22 -16 36 -19 35 -6 109 -49 156 -90 32 -29 36 -35 19 -36
-11 0 -30 6 -41 14 -18 13 -21 13 -21 0 0 -8 6 -14 13 -14 8 0 39 -11 70 -25
68 -30 80 -31 57 -6 -23 25 -37 43 -47 59 -10 16 11 7 78 -36 23 -14 48 -22
62 -19 13 2 24 1 24 -3 0 -3 16 -14 35 -23 l34 -16 -4 -92 c-3 -51 -7 -95 -11
-98 -13 -13 -44 46 -45 87 -1 23 -3 47 -4 52 -1 6 -3 21 -4 35 -1 27 -21 35
-21 9 0 -11 -5 -14 -16 -10 -14 5 -15 4 -5 -8 10 -11 5 -14 -24 -18 -43 -5
-68 8 -137 74 -14 14 -43 19 -140 23 -114 6 -125 5 -147 -14 l-23 -21 31 -35
c35 -40 38 -50 15 -59 -9 -3 -12 -2 -9 5 4 6 -2 13 -14 16 -12 3 -21 9 -21 13
0 4 -11 10 -25 12 -34 7 -31 2 10 -18 19 -9 35 -22 35 -29 0 -8 16 -19 35 -26
37 -14 52 -36 35 -53 -7 -7 -10 -6 -10 2 0 14 -21 12 -33 -3 -5 -6 -6 -2 -3 8
4 13 -4 24 -32 40 -20 12 -40 21 -44 19 -5 -1 -8 4 -8 12 0 16 -27 30 -54 27
-10 -2 -28 2 -40 7 -39 18 -107 33 -125 27 -14 -4 -22 8 -43 72 -14 43 -30 96
-36 118 -6 22 -18 65 -26 95 -8 30 -27 98 -41 150 -14 52 -28 103 -31 113 -8
24 3 21 52 -15z m278 -2 c12 -1 60 -45 55 -50 -2 -2 -29 12 -59 31 -30 19 -44
31 -30 28 14 -4 29 -8 34 -9z m-417 -48 c-3 -8 -6 -5 -6 6 -1 11 2 17 5 13 3
-3 4 -12 1 -19z m2634 -31 c-10 -9 -11 -8 -5 6 3 10 9 15 12 12 3 -3 0 -11 -7
-18z m-2601 -31 c0 -11 -19 -15 -25 -6 -3 5 1 10 9 10 9 0 16 -2 16 -4z m1
-39 c0 -4 11 -37 26 -74 25 -67 63 -183 63 -193 -1 -3 -7 7 -15 21 -25 46 -95
261 -84 257 6 -2 10 -7 10 -11z m299 -415 c0 -8 74 -31 108 -34 10 -1 10 -4
-1 -16 -12 -12 -20 -11 -56 7 -22 12 -41 18 -41 14 0 -5 -4 -3 -8 3 -4 6 -16
16 -27 22 -19 11 -19 11 3 12 12 0 22 -4 22 -8z m894 -34 c4 -17 2 -28 -4 -28
-5 0 -10 14 -10 32 0 36 4 35 14 -4z m-224 2 c0 -11 -4 -20 -8 -20 -5 0 -17 9
-27 20 -18 20 -17 20 8 20 20 0 27 -5 27 -20z m-480 -48 c0 -12 -3 -12 -15 -2
-8 7 -15 13 -15 15 0 1 7 2 15 2 8 0 15 -7 15 -15z m434 -8 c5 -14 4 -15 -9
-4 -17 14 -19 20 -6 20 5 0 12 -7 15 -16z m-204 -62 c58 -28 107 -69 149 -125
12 -15 12 -17 -5 -10 -10 3 -32 16 -49 29 -16 12 -45 29 -63 38 -52 26 -112
78 -112 97 0 6 3 9 8 7 4 -2 36 -18 72 -36z m230 28 c0 -5 -2 -10 -4 -10 -3 0
-8 5 -11 10 -3 6 -1 10 4 10 6 0 11 -4 11 -10z m-362 -9 c11 -7 11 -9 -1 -14
-9 -3 -18 1 -21 9 -6 16 2 18 22 5z m-48 -36 c7 -9 8 -15 2 -15 -5 0 -12 7
-16 15 -3 8 -4 15 -2 15 2 0 9 -7 16 -15z m522 -80 c11 -20 11 -20 -11 0 -13
11 -28 29 -33 40 -11 20 -11 20 11 0 13 -11 28 -29 33 -40z m-392 -27 c0 -14
-25 2 -44 29 l-19 26 31 -23 c18 -13 32 -27 32 -32z m301 -131 c32 -31 70 -76
91 -108 9 -14 24 -34 34 -43 9 -9 14 -19 12 -22 -3 -2 -33 28 -68 68 -35 40
-75 85 -89 101 -30 33 -14 36 20 4z m544 -337 c3 -5 1 -10 -4 -10 -6 0 -11 5
-11 10 0 6 2 10 4 10 3 0 8 -4 11 -10z m35 -35 c11 -13 10 -14 -4 -9 -9 3 -16
10 -16 15 0 13 6 11 20 -6z"/>
<path d="M2708 2773 c-37 -9 -16 -18 33 -14 28 1 49 4 47 6 -7 6 -65 12 -80 8z"/>
<path d="M2650 2715 c-14 -8 -20 -14 -15 -14 6 0 21 6 35 14 14 8 21 14 15 14
-5 0 -21 -6 -35 -14z"/>
<path d="M2796 2653 c-27 -13 -55 -22 -63 -19 -18 7 -56 -12 -48 -24 7 -11
-33 -25 -64 -21 -14 2 -21 -1 -17 -8 4 -6 1 -9 -6 -6 -7 3 -31 -6 -53 -19 -22
-14 -85 -47 -140 -74 -55 -27 -125 -66 -155 -86 -30 -20 -59 -37 -65 -39 -5
-3 -7 -8 -3 -12 4 -4 22 3 40 17 18 13 49 30 68 38 19 7 42 18 50 24 8 7 58
32 110 56 52 25 97 48 100 51 3 4 16 10 30 14 53 17 265 115 268 125 4 12 8
13 -52 -17z m-76 -33 c-8 -5 -19 -10 -25 -10 -5 0 -3 5 5 10 8 5 20 10 25 10
6 0 3 -5 -5 -10z"/>
<path d="M2274 2544 c-18 -14 -18 -15 4 -4 12 6 22 13 22 15 0 8 -5 6 -26 -11z"/>
<path d="M3212 2570 c0 -14 2 -19 5 -12 2 6 2 18 0 25 -3 6 -5 1 -5 -13z"/>
<path d="M3212 2500 c0 -14 2 -19 5 -12 2 6 2 18 0 25 -3 6 -5 1 -5 -13z"/>
<path d="M3213 2376 c0 -32 3 -52 7 -45 4 8 4 34 0 59 l-8 45 1 -59z"/>
<path d="M3492 2328 c7 -15 15 -23 17 -17 2 6 -4 18 -13 27 -15 15 -15 15 -4
-10z"/>
<path d="M3209 2306 c-7 -8 2 -156 11 -156 4 0 7 30 5 68 -1 37 3 73 8 80 7 8
5 12 -5 12 -8 0 -17 -2 -19 -4z"/>
<path d="M3498 2174 c-16 -8 -28 -17 -28 -19 0 -6 32 6 55 22 26 18 7 16 -27
-3z"/>
<path d="M3580 2100 c-8 -5 -10 -10 -5 -10 6 0 17 5 25 10 8 5 11 10 5 10 -5
0 -17 -5 -25 -10z"/>
<path d="M3504 2054 c-18 -14 -18 -15 4 -4 12 6 22 13 22 15 0 8 -5 6 -26 -11z"/>
<path d="M3404 1984 c-18 -14 -18 -15 4 -4 12 6 22 13 22 15 0 8 -5 6 -26 -11z"/>
<path d="M3360 1965 c-7 -9 -8 -15 -2 -15 5 0 12 7 16 15 3 8 4 15 2 15 -2 0
-9 -7 -16 -15z"/>
<path d="M3300 1936 c0 -2 7 -7 16 -10 8 -3 12 -2 9 4 -6 10 -25 14 -25 6z"/>
<path d="M935 1140 c3 -5 8 -10 11 -10 2 0 4 5 4 10 0 6 -5 10 -11 10 -5 0 -7
-4 -4 -10z"/>
<path d="M1520 996 c0 -2 7 -6 15 -10 8 -3 15 -1 15 4 0 6 -7 10 -15 10 -8 0
-15 -2 -15 -4z"/>
<path d="M3163 3320 c-1 -50 1 -90 5 -90 4 0 9 41 10 90 1 50 -2 90 -6 90 -4
0 -8 -41 -9 -90z"/>
<path d="M1094 3234 c-18 -14 -18 -15 4 -4 12 6 22 13 22 15 0 8 -5 6 -26 -11z"/>
<path d="M965 3165 c-27 -19 -54 -38 -60 -42 -5 -5 -34 -26 -63 -47 -29 -21
-49 -43 -45 -48 3 -7 1 -8 -5 -4 -10 6 -71 -42 -111 -87 -9 -10 -47 -51 -84
-90 -73 -76 -120 -139 -130 -172 -13 -39 -18 -111 -7 -95 5 8 10 26 10 40 0
45 56 123 157 220 260 251 310 295 374 333 24 15 37 26 29 26 -8 -1 -37 -16
-65 -34z"/>
<path d="M515 2828 c-34 -40 -93 -134 -94 -151 -1 -4 -14 -31 -31 -60 -16 -29
-37 -76 -45 -103 -17 -56 -20 -128 -5 -119 6 3 10 21 10 39 0 19 7 51 16 72
33 80 76 168 88 180 7 7 19 27 26 46 8 18 16 35 19 38 12 11 71 89 71 94 0 16
-22 1 -55 -36z"/>
<path d="M936 2469 c-20 -23 -34 -44 -31 -47 5 -5 74 69 75 81 0 13 -7 7 -44
-34z"/>
<path d="M884 2402 c-17 -10 -81 -123 -89 -155 -4 -15 -11 -30 -16 -33 -11 -6
-41 21 -32 30 4 3 1 6 -6 6 -7 0 -9 5 -5 12 4 7 3 8 -4 4 -9 -5 -8 -15 3 -36
15 -29 15 -30 -12 -35 -16 -4 -38 -10 -50 -15 -21 -9 -24 -5 -39 48 -9 31 -25
66 -35 77 -24 24 -25 10 -4 -57 8 -27 10 -48 5 -48 -4 0 -11 6 -14 13 -3 6 -4
3 -3 -8 2 -11 8 -19 13 -18 5 1 11 -9 12 -23 1 -15 -4 -24 -12 -24 -10 0 -19
20 -26 58 -17 79 -33 129 -37 116 -2 -6 1 -31 7 -55 6 -24 13 -57 15 -73 2
-15 10 -35 17 -43 10 -12 8 -18 -12 -35 l-25 -20 28 5 c22 3 25 2 16 -9 -6 -8
-17 -14 -25 -14 -16 0 -112 -98 -120 -122 -3 -10 -10 -18 -16 -18 -6 0 -8 -3
-5 -6 3 -4 2 -15 -4 -25 -13 -25 9 -63 28 -47 7 6 13 16 13 23 0 6 20 31 45
54 25 23 45 39 45 36 0 -3 17 10 38 29 20 20 43 36 50 36 6 0 12 5 12 10 0 12
-2 12 -37 0 l-28 -11 28 26 c15 14 25 30 22 35 -3 5 0 12 6 16 6 3 14 1 18 -5
5 -7 15 -4 30 11 13 12 38 22 55 22 17 1 37 5 43 9 7 5 45 11 83 14 50 4 77
12 93 26 l22 20 -35 -6 c-19 -4 -64 -8 -100 -11 l-65 -5 48 11 c55 13 65 32
11 22 -35 -6 -36 -6 -29 17 7 24 54 113 83 157 15 23 14 26 -4 14z m-137 -228
c-3 -3 -12 -4 -19 -1 -8 3 -5 6 6 6 11 1 17 -2 13 -5z"/>
<path d="M3030 2211 c0 -39 4 -71 9 -71 13 0 21 52 11 71 -5 9 -7 25 -4 36 3
12 1 24 -5 27 -8 5 -11 -15 -11 -63z"/>
<path d="M880 2209 c0 -5 5 -7 10 -4 6 3 10 8 10 11 0 2 -4 4 -10 4 -5 0 -10
-5 -10 -11z"/>
<path d="M1088 2163 c6 -2 18 -2 25 0 6 3 1 5 -13 5 -14 0 -19 -2 -12 -5z"/>
<path d="M1035 2150 c-8 -13 5 -13 25 0 13 8 13 10 -2 10 -9 0 -20 -4 -23 -10z"/>
<path d="M2985 2150 c-3 -5 -2 -10 4 -10 5 0 13 5 16 10 3 6 2 10 -4 10 -5 0
-13 -4 -16 -10z"/>
<path d="M980 2140 c0 -13 11 -13 30 0 12 8 11 10 -7 10 -13 0 -23 -4 -23 -10z"/>
<path d="M2362 2088 c-57 -28 -101 -52 -99 -55 5 -5 207 94 207 102 0 6 10 11
-108 -47z"/>
<path d="M2940 2120 c-9 -6 -10 -10 -3 -10 6 0 15 5 18 10 8 12 4 12 -15 0z"/>
<path d="M3753 2053 c-1 -19 1 -22 8 -12 11 17 12 39 2 39 -5 0 -9 -12 -10
-27z"/>
<path d="M2200 2010 c-19 -11 -30 -19 -25 -19 6 0 26 8 45 19 19 11 31 19 25
19 -5 0 -26 -8 -45 -19z"/>
<path d="M2114 1964 c-18 -14 -18 -15 4 -4 12 6 22 13 22 15 0 8 -5 6 -26 -11z"/>
<path d="M1260 1914 c1 -11 119 -129 124 -123 3 2 -24 33 -60 68 -35 36 -64
60 -64 55z"/>
<path d="M2815 1827 c-11 -8 -38 -21 -60 -29 -82 -32 -212 -98 -225 -113 -24
-28 37 -17 107 20 36 19 72 35 79 35 7 0 29 9 49 20 20 11 41 20 47 20 13 0
37 30 38 48 0 16 -11 15 -35 -1z"/>
<path d="M1285 1800 c3 -5 8 -10 11 -10 2 0 4 5 4 10 0 6 -5 10 -11 10 -5 0
-7 -4 -4 -10z"/>
<path d="M2275 1780 c-27 -17 -45 -30 -40 -29 17 0 121 58 105 58 -8 0 -37
-13 -65 -29z"/>
<path d="M1623 1728 c-13 -6 -23 -15 -23 -20 0 -7 31 8 59 29 10 7 -16 1 -36
-9z"/>
<path d="M2150 1710 c0 -5 5 -10 11 -10 5 0 7 5 4 10 -3 6 -8 10 -11 10 -2 0
-4 -4 -4 -10z"/>
<path d="M2100 1690 l-25 -8 27 -1 c15 -1 30 4 33 9 7 11 0 11 -35 0z"/>
<path d="M2695 1679 c-64 -40 -75 -93 -25 -112 26 -10 30 -17 30 -48 0 -32 -4
-38 -40 -54 -22 -10 -40 -23 -40 -30 0 -6 -11 -17 -25 -23 -28 -13 -33 -30
-11 -38 14 -5 138 52 144 67 2 4 10 5 18 2 8 -3 14 0 14 6 0 6 6 11 14 11 8 0
47 19 86 43 62 37 68 43 53 55 -9 6 -25 12 -34 12 -28 0 -101 52 -89 64 16 16
12 44 -9 56 -28 14 -51 11 -86 -11z m105 -144 c0 -6 -76 -45 -87 -45 -10 1 69
50 80 50 4 0 7 -2 7 -5z"/>
<path d="M2044 1665 c-18 -14 -18 -14 4 -8 12 3 22 9 22 14 0 12 -3 11 -26 -6z"/>
<path d="M2361 1525 c-47 -27 -66 -33 -36 -12 10 8 14 16 9 20 -12 7 -48 -19
-41 -30 3 -5 -18 -25 -46 -44 -68 -45 -80 -48 -37 -10 19 17 43 34 53 37 9 3
17 10 17 15 0 10 -48 -16 -145 -77 -94 -58 -146 -84 -158 -78 -7 4 -9 3 -4 -1
9 -11 -43 -46 -56 -38 -6 3 -7 2 -4 -4 3 -5 -23 -25 -58 -44 -37 -20 -60 -38
-55 -43 5 -5 17 -5 27 -1 10 5 22 7 26 6 5 -1 33 14 62 34 29 19 60 35 68 35
22 0 222 106 257 135 8 7 35 24 60 38 88 47 110 62 110 75 0 15 3 16 -49 -13z"/>
<path d="M2786 1415 c-11 -8 -15 -15 -9 -15 6 0 16 7 23 15 16 19 11 19 -14 0z"/>
<path d="M2439 1403 c-13 -15 -12 -15 9 -4 23 12 28 21 13 21 -5 0 -15 -7 -22
-17z"/>
<path d="M3030 1374 c-90 -48 -106 -59 -75 -49 19 6 19 5 2 -7 -126 -90 -150
-108 -140 -108 6 0 18 6 25 13 7 6 29 21 48 31 19 11 37 22 40 26 3 3 44 26
93 50 48 24 87 47 87 51 0 5 -7 6 -15 3 -25 -10 -17 5 13 20 15 8 23 15 17 15
-5 0 -48 -21 -95 -45z m40 -4 c0 -5 -8 -10 -17 -10 -15 0 -16 2 -3 10 19 12
20 12 20 0z"/>
<path d="M2325 1316 c-93 -44 -304 -162 -382 -214 -34 -23 -73 -47 -87 -54
-20 -9 -23 -14 -15 -25 16 -18 36 -16 67 5 15 10 86 52 157 92 72 40 141 83
155 96 14 12 53 37 88 55 59 31 100 64 91 73 -2 3 -36 -10 -74 -28z"/>
<path d="M3160 1325 c0 -8 2 -15 4 -15 2 0 6 7 10 15 3 8 1 15 -4 15 -6 0 -10
-7 -10 -15z"/>
<path d="M2552 1275 c-74 -45 -79 -55 -7 -15 69 38 70 39 64 44 -2 1 -28 -11
-57 -29z"/>
<path d="M3085 1280 c-3 -6 1 -7 9 -4 18 7 21 14 7 14 -6 0 -13 -4 -16 -10z"/>
<path d="M2990 1234 c-36 -19 -60 -34 -54 -34 13 0 134 58 134 65 0 8 -12 4
-80 -31z"/>
<path d="M3137 1183 c-9 -9 -9 -53 1 -53 4 0 7 14 7 30 0 17 0 30 -1 30 0 0
-4 -3 -7 -7z"/>
<path d="M2705 1147 c-16 -12 -32 -22 -35 -22 -3 0 -4 -4 -2 -8 1 -5 -2 -6 -7
-3 -15 9 -432 -204 -424 -217 3 -6 1 -7 -5 -3 -6 3 -38 -8 -72 -26 -33 -18
-82 -44 -108 -58 -87 -47 -122 -72 -122 -86 0 -17 10 -17 46 -4 25 10 26 9 13
-6 -13 -16 -12 -16 8 -4 12 8 19 18 16 23 -3 5 4 6 17 2 14 -5 20 -3 16 3 -3
6 7 13 24 17 16 4 30 11 30 16 0 5 6 9 13 9 20 0 320 158 405 213 40 26 77 47
82 47 5 0 13 6 17 14 4 7 38 32 76 55 63 41 82 61 55 61 -7 0 -26 -11 -43 -23z
m-180 -127 c-3 -5 -10 -10 -16 -10 -5 0 -9 5 -9 10 0 6 7 10 16 10 8 0 12 -4
9 -10z m-35 -14 c0 -5 -123 -75 -172 -98 -21 -9 -38 -14 -38 -11 0 10 35 32
52 33 9 0 18 3 20 8 3 8 118 71 131 72 4 0 7 -2 7 -4z"/>
<path d="M3129 953 c0 -21 -3 -76 -5 -123 -3 -46 -2 -81 2 -77 9 8 18 237 10
237 -3 0 -6 -17 -7 -37z"/>
<path d="M3117 623 c-9 -167 -8 -483 1 -483 4 0 8 84 9 188 0 103 2 235 4 294
1 59 0 110 -3 113 -3 3 -8 -48 -11 -112z"/>
<path d="M1530 706 c0 -2 7 -7 16 -10 8 -3 12 -2 9 4 -6 10 -25 14 -25 6z"/>
<path d="M1895 670 c-39 -26 -25 -26 17 0 18 11 29 20 23 20 -5 0 -23 -9 -40
-20z"/>
<path d="M3191 664 c0 -11 3 -14 6 -6 3 7 2 16 -1 19 -3 4 -6 -2 -5 -13z"/>
<path d="M1640 570 c0 -5 5 -10 11 -10 5 0 7 5 4 10 -3 6 -8 10 -11 10 -2 0
-4 -4 -4 -10z"/>
<path d="M1670 537 c0 -4 11 -20 25 -35 14 -15 25 -23 25 -19 0 4 -11 20 -25
35 -14 15 -25 23 -25 19z"/>
<path d="M1512 489 c2 -6 8 -10 13 -10 5 0 11 4 13 10 2 6 -4 11 -13 11 -9 0
-15 -5 -13 -11z"/>
<path d="M1730 472 c0 -10 87 -122 96 -122 8 0 4 7 -16 31 -21 26 -25 30 -58
73 -12 16 -22 24 -22 18z"/>
<path d="M1590 371 c0 -5 5 -13 10 -16 6 -3 10 -2 10 4 0 5 -4 13 -10 16 -5 3
-10 2 -10 -4z"/>
<path d="M1846 312 c19 -33 74 -98 74 -88 0 4 -16 28 -35 53 -19 25 -35 50
-35 54 0 5 -5 9 -11 9 -6 0 -3 -12 7 -28z"/>
<path d="M1120 319 c0 -9 79 -90 141 -145 13 -12 57 -55 98 -98 54 -56 80 -76
99 -76 25 0 25 1 -18 46 -59 60 -168 166 -238 231 -55 51 -82 65 -82 42z"/>
<path d="M1460 303 c0 -4 17 -27 38 -50 20 -23 62 -70 92 -104 30 -35 63 -71
73 -81 9 -10 17 -20 17 -23 0 -10 40 -49 44 -44 3 3 -19 35 -49 72 -62 79
-215 242 -215 230z"/>
<path d="M1934 195 c8 -8 18 -15 22 -15 3 0 1 7 -6 15 -7 8 -17 15 -22 15 -5
0 -3 -7 6 -15z"/>
<path d="M1492 164 c10 -10 20 -16 22 -13 3 3 -5 11 -17 18 -21 13 -21 12 -5
-5z"/>
<path d="M1976 135 c14 -19 31 -35 36 -35 5 0 -4 16 -19 35 -36 46 -52 46 -17
0z"/>
<path d="M1556 93 c24 -27 44 -52 44 -56 0 -5 4 -6 9 -2 10 5 -75 105 -90 105
-4 0 12 -21 37 -47z"/>
<path d="M3110 67 c0 -37 4 -67 9 -67 9 0 6 118 -4 128 -3 3 -5 -25 -5 -61z"/>
<path d="M1970 63 c35 -40 61 -63 72 -63 5 0 -7 16 -27 37 -19 20 -35 40 -35
45 0 4 -8 8 -17 8 -14 0 -12 -5 7 -27z"/>
<path d="M2020 82 c0 -5 7 -15 15 -22 8 -7 15 -8 15 -2 0 5 -7 15 -15 22 -8 7
-15 8 -15 2z"/>
<path d="M1626 15 c4 -8 11 -15 16 -15 6 0 5 6 -2 15 -7 8 -14 15 -16 15 -2 0
-1 -7 2 -15z"/>
<path d="M2080 10 c0 -5 5 -10 11 -10 5 0 7 5 4 10 -3 6 -8 10 -11 10 -2 0 -4
-4 -4 -10z"/>
</g>
</svg>
